<svg width="2000" height="1168" viewBox="0 0 2000 1168" fill="none" xmlns="http://www.w3.org/2000/svg">
<path d="M1275.48 0.2119C1306.44 -0.9536 1336.12 2.14674 1360.4 23.2885C1378.77 38.0762 1392.48 66.6267 1392.74 90.7086C1393.21 133.425 1399.25 184.586 1365.13 217.2C1344.52 236.897 1322.85 242.048 1296.04 243.975C1227.79 247.987 1178.67 214.668 1179.82 142.3C1180.09 124.885 1178.7 106.966 1179.74 89.5567C1183.16 32.5486 1220.8 2.82831 1275.48 0.2119ZM1229.84 78.3064C1227.89 92.0658 1227.75 158.436 1230.71 171.131C1241.65 226.868 1345.62 223.427 1343.41 153.94C1342.26 117.694 1358.26 51.7129 1306.86 40.9328C1272.81 33.7916 1239.27 40.5392 1229.84 78.3064Z" fill="#7CF4E4"/>
<path d="M1229.84 78.3125C1232.46 87.6331 1233.47 161.953 1230.72 171.138C1227.75 158.442 1227.9 92.0719 1229.84 78.3125Z" fill="#5FC3B4" fill-opacity="0.0117647"/>
<path d="M356.75 3.60156C372.544 3.68335 388.337 3.89123 404.127 4.22691C407.192 9.3345 414.953 29.1812 417.983 36.1683C440.373 87.843 462.158 139.778 483.334 191.962C487.094 201.167 500.87 231.296 501.879 239.319C496.492 241.642 463.53 241.014 456.062 240.597C447.515 225.578 442.126 206.894 434.466 190.89C425.98 190.385 414.704 190.696 406.01 190.694C385.122 190.809 345.99 189.461 326.936 191.602C320.816 206.733 316.17 224.883 308.174 238.795C306.286 242.08 266.211 242.285 262.359 238.628C287.057 173.65 310.918 108.254 337.27 43.8854C342.054 32.2015 346.64 17.2519 352.148 5.65908C352.695 4.50892 355.486 3.89635 356.75 3.60156ZM343.696 151.276C356.33 151.503 368.967 151.567 381.603 151.468C393.238 151.411 404.873 151.233 416.504 150.936C411.547 133.551 403.11 115.742 396.779 98.6563C394.008 91.1777 384.438 59.8148 378.607 56.4827C370.459 86.105 353.068 121.194 343.696 151.276Z" fill="#7CF4E4"/>
<path d="M838.219 4.28874C846.956 3.86105 881.858 2.46892 888.207 5.39545C890.908 9.35372 893.814 15.2179 895.577 19.7418C923.765 92.3155 954.254 164.337 981.172 237.289C981.521 238.237 980.26 239.121 979.621 239.802C975.377 241.389 941.924 241.838 938.575 240.044C933.062 237.099 919.743 198.874 916.727 191.415C909.16 190.484 899.105 190.683 891.283 190.63L844.185 190.669C833.749 190.686 821.248 190.377 811.084 191.566C804.561 206.666 799.541 225.957 791.044 239.267C789.748 241.296 750.699 243.025 746.734 238.296C748.72 228.656 754.486 215.996 758.061 206.61C762.315 195.436 766.528 184.244 770.733 173.047C784.943 135.337 799.505 97.7596 814.417 60.3214C818.402 50.234 832.186 10.9137 838.219 4.28874ZM826.17 151.948C838.198 152.613 851.089 151.462 863.376 151.653L899.633 151.335C897.98 146.531 892.808 131.175 890.737 126.932C885.71 116.621 867.287 59.3978 862.558 55.8204C854.847 73.0532 847.953 93.6063 841.52 111.516C838.029 121.237 828.241 143.091 826.17 151.948Z" fill="#7CF4E4"/>
<path d="M1571.4 97.5263C1572.58 82.4821 1570.32 14.9819 1573.48 5.57954C1577.57 2.95631 1613.4 2.80637 1617.45 6.67348C1618.42 14.0541 1618.05 27.0382 1618.05 34.7775L1617.96 87.778L1617.92 177.959C1617.95 187.695 1618.94 234.571 1616.48 239.089C1613.56 241.003 1613.41 240.435 1609.51 240.735C1598.51 240.722 1583.54 241.123 1572.9 240.021C1571.73 232.299 1571.86 214.903 1571.81 206.621L1571.75 139.519L1476.6 139.537C1475.87 146.63 1476.24 160.663 1476.24 168.387L1475.86 212.374C1475.81 218.788 1476.12 233.696 1474.28 239.081C1470.36 241.848 1435 242.519 1431.29 238.396C1430.4 233.514 1430.4 229.015 1430.25 224.072C1429.17 188.722 1429.75 153.353 1429.67 117.977L1429.73 39.0025C1429.83 29.4808 1429.71 18.2935 1430.64 8.73781C1430.89 6.09925 1432.35 5.54461 1434.22 4.19083C1442.53 4.22831 1467.8 3.65834 1474.2 5.928C1476.79 8.90821 1476.43 88.0813 1476.39 97.5919C1485.44 98.7284 1499.73 98.0494 1509.43 98.0153C1530.09 98.0247 1550.74 97.8619 1571.4 97.5263Z" fill="#7CF4E4"/>
<path d="M534.981 4.52735C542.722 4.54184 568.97 2.67261 574.315 5.48157C577.73 11.9813 575.125 68.4757 575.903 80.3505C576.28 86.0979 575.126 96.8762 576.978 103.191C580.158 105.796 590.338 104.727 594.874 104.574C604.019 95.3452 616.277 79.4508 624.311 69.1709L654.596 30.5943C659.991 23.6712 671.278 5.05472 679.287 4.5904C685.724 4.21638 722.106 2.92138 725.647 5.42448C724.984 17.2175 635.778 116.422 639.582 123.189C643.705 130.523 683.044 180.162 690.831 190.382C695.925 196.885 729.125 235.112 724.67 240.486C715.533 241.155 685.422 242.615 676.357 238.826C673.753 237.737 663.319 223.848 660.533 220.477C647.123 204.278 633.844 187.969 620.697 171.555C614.928 164.41 604.544 150.731 598.417 144.663L597.703 143.965C591.843 144.877 584.9 143.865 579.288 145.666C570.212 148.577 580.598 226.916 574.027 238.922C569.108 242.532 541.739 240.515 533.782 240.85C531.513 240.945 530.542 239.654 529.397 238.221C528.693 233.329 528.925 222.982 528.897 217.757L529.075 170.294L528.937 60.2456C528.933 48.6775 528.235 16.0205 529.685 6.79275C531.569 4.85706 532.066 5.23534 534.981 4.52735Z" fill="#7CF4E4"/>
<path d="M27.0343 4.4743C39.2055 3.48004 64.3542 3.69645 76.548 4.41296C80.4067 8.25451 86.2454 17.1926 89.503 21.9619C97.5674 33.6612 105.479 45.4645 113.236 57.3699C117.097 63.3244 128.012 83.6252 134.81 84.2565C141.897 79.9012 178.447 16.666 191.239 4.69922L191.866 4.12328C206.495 3.97248 228.385 3.21082 242.397 5.17036C237.375 16.0569 221.449 37.8751 214.564 48.2504C198.166 72.9611 180.363 96.9049 164.637 122.089C173.332 134.287 242.768 232.514 243.341 238.215C243.48 239.6 243.084 239.645 242.296 240.686L239.421 240.715C224.791 240.42 210.146 241.006 195.216 240.611C189.097 235.915 142.544 167.392 134.227 156.311C116.834 175.335 97.2436 212.306 79.9909 233.538C76.5498 237.773 74.0273 240.73 68.1669 240.787C60.9285 240.858 30.0079 242.428 25.8731 239.152C25.6718 233.262 53.7314 195.384 58.8263 188.33C74.506 166.624 88.3995 143.254 103.828 121.538C95.6143 108.352 24.5355 10.3776 25.2554 5.46429L27.0343 4.4743Z" fill="#7CF4E4"/>
<path d="M963.623 4.33097C973.567 3.10924 986.852 3.77804 997.077 3.83683C1049.05 4.13331 1101.03 3.69625 1153 4.02937C1155.47 4.04556 1160.43 4.27559 1162.47 5.30818C1163.64 10.8486 1163.04 34.7064 1163 41.9678C1138.71 42.4824 1114 42.5181 1089.7 42.7269C1087.78 82.9256 1089.18 127.358 1088.85 168.329C1088.58 186.326 1090.57 221.051 1088.57 237.588C1087.82 238.728 1087.72 239.396 1086.51 239.702C1079.48 241.488 1048.77 241.894 1043.36 239.776C1041.34 234.165 1041.96 190.151 1041.91 180.725L1041.45 42.4065L995.901 42.1407C989.272 42.1245 969.051 43.5243 964.68 39.9085C962.021 33.1669 962.78 12.049 963.623 4.33097Z" fill="#7CF4E4"/>
<path d="M931.449 688.422C956.968 687.278 1184.24 687.363 1193.09 690.435C1194.83 694.062 1195.78 699.169 1195.79 703.162C1195.89 784.759 1195.35 866.396 1196.19 947.999C1196.33 961.574 1194.2 1001.83 1196.57 1012.36C1203.55 1022.46 1242.38 1012.35 1254.14 1017.31C1259.35 1018.11 1259.45 1031.88 1258.81 1036.57C1255.92 1057.67 1262.51 1151.02 1256.33 1163.68C1249.58 1168.88 1215.68 1164.44 1205.17 1166.79C1201.08 1167.71 1190.54 1166.8 1188.09 1162.05C1180.96 1148.18 1191.79 1095.59 1183.22 1085.36C1179.65 1083.51 1175.71 1083.79 1171.69 1083.72C1146.99 1083.67 918.438 1082.4 914.742 1085.01C907.719 1089.94 912.406 1145.26 911.017 1156.76C910.557 1160.57 909.76 1162.8 906.757 1165.18C896.921 1166.55 846.6 1167.92 839.212 1163.22C836.581 1153.33 836.158 1031.22 838.621 1020.23C850.008 1008.5 877.359 1034.43 899.092 977.422C928.818 899.433 919.408 825.608 921.567 744.402C921.828 734.554 919.472 699.247 923.33 692.607C926.447 689.59 927.199 689.5 931.449 688.422ZM582.2 684.155C643.412 682.205 699.501 690.333 746.662 732.438C782.478 764.412 800.128 808.17 802.244 855.509C803.713 867.907 801.665 882.041 802.674 894.273C811.288 998.668 729.759 1083.34 625.052 1089.25C510.15 1097.81 409.686 1039.77 403.112 915.837C399.802 853.446 401.613 795.591 445.613 746.74C483.012 705.217 526.736 687.788 582.2 684.155ZM281.342 690.087C295.225 686.947 358.018 686.887 371.784 690.172L372.742 691.756C369.81 707.143 227.326 841.169 206.458 868.49L205.74 869.442C221.501 891.534 242.628 912.821 260.257 933.414C280.721 957.313 300.529 980.923 321.774 1004.24C331.274 1015.69 386.181 1069.27 381.104 1081.53C374.735 1085.69 304.649 1083.81 294.18 1083.1C283.989 1075.45 262.185 1049.49 252.114 1038.27L171.172 947.821C162.137 937.647 144.573 916.425 134.66 909.941C130.535 908.875 126.743 911.061 123.034 912.618C118.718 914.42 107.433 921.331 105.753 925.895C103.352 932.422 105.246 949.175 104.937 955.702C104.046 974.514 107.972 1068.28 103.645 1080.59C102.125 1082.35 101.143 1082.3 99.3665 1082.89C92.4782 1085.16 29.7661 1085.47 28.5052 1081.45C23.3831 1065.1 26.0449 1017.74 25.8772 999.224L25.9192 816.796C25.7014 789.124 25.7063 761.452 25.9339 733.781C25.9249 722.788 23.4178 702.064 28.0608 691.723C29.1534 689.29 33.0995 688.764 35.6624 688.373C45.9548 687.89 95.3318 686.21 101.368 691.505C109.758 698.865 102.178 825.449 105.3 844.079C105.758 846.809 106.865 849.242 109.326 850.703C112.218 852.419 116.379 852.127 119.24 850.589C131.497 843.998 145.215 826.651 155.342 816.372C170.094 801.398 274.957 691.533 281.342 690.087ZM1672.58 740.637C1679.17 740.253 1688.76 738.951 1693.36 744.307C1693.32 752.038 1690.89 760.32 1688.81 767.733C1682.38 790.584 1610 1018.01 1607.56 1020.85C1604.88 1023.97 1601.02 1023.62 1597.27 1023.71C1589.62 1023.75 1577.3 1025.39 1573.26 1017.7C1572.74 1014.23 1573.73 1009.74 1574.86 1006.41C1604.53 919.474 1630.61 831.321 1658.8 744.036C1659.84 740.817 1669.77 740.746 1672.58 740.637ZM718.684 837.13C708.638 770.018 649.675 747.267 589.787 751.23C480.181 764.598 480.86 841.046 487.436 931.791C489.338 958.047 502.958 982.49 523.642 998.626C550.094 1019.41 585.939 1021.83 618.42 1020.39C650.558 1016.23 675.768 1007.92 696.843 981.488C719.805 952.544 721.235 917.042 720.356 881.849C719.976 866.684 720.949 852.266 718.684 837.13ZM1049.59 754.916C1034.92 754.898 1015.51 754.378 1001.14 755.217C999.429 757.381 998.463 759.032 998.429 761.896C997.402 847.248 1004.54 938.689 962.773 1016.37L1085.25 1016.38C1094.63 1016.66 1112.14 1018.68 1120.1 1013.62C1123.7 1011.32 1122.18 999.135 1122.58 995.232C1121.21 916.283 1124.21 833.98 1121.25 755.342C1097.36 754.937 1073.47 754.794 1049.59 754.916ZM1513.5 792.16C1529.8 792.277 1527.67 810.428 1527.7 821.732C1517.61 830.673 1503.31 837.713 1492.94 845.553C1484.58 851.883 1434.63 880.645 1434.56 887.577C1445.49 902.326 1510.5 934.597 1526.83 949.997L1527.68 950.817C1527.04 967.912 1527.62 990.425 1503.7 973.373C1487.57 963.881 1398.68 908.768 1393.71 900.791C1390.11 895 1389.18 884.783 1390.89 878.256C1392 874.006 1394.45 871.356 1397.65 868.527C1414.31 853.796 1435.81 842.068 1454.64 830.095C1474.35 817.56 1493.59 804.415 1513.5 792.16ZM1748.71 790.985C1749.7 791.022 1750.68 791.141 1751.65 791.355C1761.69 793.559 1873.08 867.83 1876.44 873.948C1880.75 881.786 1878.47 894.179 1875.83 902.177C1865.86 912.181 1840.82 926.108 1827.85 934.043L1763.24 973.842C1741.33 988.25 1740.14 970.1 1738.9 952.844C1753.56 940.09 1833.2 895.287 1835.9 887.204C1832.66 877.555 1753.9 833.198 1739.27 821.19C1739.16 807.538 1737.06 799.962 1748.71 790.985Z" fill="url(#paint0_linear_36_2362)"/>
<path d="M314.455 349.164C323.479 349.416 338.58 347.044 343.334 355.104C348.092 363.967 362.947 383.988 369.456 394.43C381.75 414.153 398.045 445.654 411.952 463.051C421.056 457.541 473.5 366.045 486.673 350.557L487.507 349.589C504.607 349.026 524.433 349.465 541.681 349.63C543.281 426.389 541.691 505.001 541.889 581.838C530.187 583.71 508.159 582.956 495.629 582.777C493.022 570.116 493.548 543.143 493.45 528.71L493.527 419.946C485.563 428.522 483.034 435.534 476.622 444.153C460.332 466.052 446.089 499.559 428.86 519.197C419.487 520.291 410.329 519.817 400.932 519.488C400.452 519.19 399.973 518.891 399.494 518.592L398.755 518.092C381.917 506.868 346.566 435.282 331.694 419.653C331.166 473.631 331.144 527.611 331.629 581.589C320.402 583.062 296.747 582.63 284.759 582.463C281.414 531.814 284.09 473.052 283.54 421.829C283.392 407.977 282.281 362.081 284.783 351.713C289.198 347.972 307.253 349.193 314.455 349.164Z" fill="#FDFDFD"/>
<path d="M834.788 349.612C840.041 349.096 845.316 349.315 850.587 349.281C881.885 349.079 913.184 349.037 944.483 349.224C952.776 349.274 961.071 349.403 969.357 349.043C971.108 349.307 975.019 350.012 976.594 350.02C1044.44 359.267 1054.78 452.039 1006.97 488.56C981.168 508.267 917.58 502.359 883.995 502.73L883.656 582.133C870.322 583.364 847.356 583.251 834.225 581.849C833.63 572.756 833.897 561.151 834.079 551.96C835.407 485.091 831.869 416.324 834.788 349.612ZM884.317 388.982C881.606 407.965 884.451 441.198 883.372 461.936C902.52 462.926 939.589 462.892 958.482 461.068C968.502 459.146 974.927 459.11 981.386 450.074C990.943 436.706 990.871 404.191 975.493 395.103C960.336 386.147 931.236 388.022 913.669 388.223L884.317 388.982Z" fill="#FDFDFD"/>
<path d="M1793.59 349.26C1803.62 349.454 1828.79 347.777 1835.79 351.152C1840.46 361.124 1837.24 470.056 1838.35 488.061C1838.58 491.678 1837.17 499.122 1838.54 501.763C1846.08 499.192 1939.27 360.997 1953.5 350.795C1957.03 348.267 1992.02 349.069 1997.02 349.797L1999.16 351.365C2000.38 362.809 1999.92 380.091 1999.9 392.128L1999.81 460.758L1999.86 534.347C1999.86 543.623 2000.31 573.81 1998.24 581.457C1991.74 583.397 1962.65 583.237 1956.18 582.13C1950.83 577.4 1951.47 572.091 1951.49 565.288C1951.61 518.762 1951.85 471.893 1951.3 425.376L1950.1 424.794C1944.48 428.594 1844.34 566.294 1834.08 581.661C1825.84 582.317 1799.63 583.842 1791.77 582.41C1789.76 576.516 1790.49 555.888 1790.48 548.773L1790.43 487.469L1790.23 409.273C1790.14 391.834 1790.31 374.024 1790.78 356.572C1790.91 352.159 1791.21 352.293 1793.59 349.26Z" fill="#FDFDFD"/>
<path d="M1791.77 582.411C1789.76 576.518 1790.49 555.89 1790.48 548.775L1790.43 487.471L1790.23 409.275C1790.14 391.836 1790.31 374.026 1790.78 356.574C1790.91 352.161 1791.21 352.295 1793.59 349.262C1793.77 358.548 1792.95 367.396 1792.93 376.627L1792.72 461.597C1792.68 483.648 1794.49 505.718 1793.92 527.998C1793.45 546.08 1792.02 564.503 1791.77 582.411Z" fill="#E6E5E4"/>
<path d="M1705.51 349.626C1719.69 349.134 1733.88 348.988 1748.06 349.187C1748.98 355.915 1748.38 372.336 1748.38 380.115L1748.33 442.737L1748.24 532.597C1748.27 548.928 1749.16 565.94 1748.21 582.133C1740.34 583.038 1708.56 584.102 1702.19 580.772C1698.62 572.13 1701.91 476.357 1700.33 459.042C1699.77 452.783 1701.89 434.425 1699.75 426.947C1696.54 428.22 1594.47 573.054 1581.96 581.374C1578.83 583.458 1545.37 583.806 1540.08 582.358C1536.58 577.184 1537.97 560.205 1538.03 553.291C1538.08 540.662 1538.02 528.033 1537.84 515.406V413.68C1537.83 394.986 1537.57 375.794 1538.07 357.075C1538.19 352.818 1538.58 352.594 1540.79 349.654C1549.61 349.189 1575.77 348.105 1582.73 351.198C1590.28 361.156 1583.28 472.907 1585.45 495.126C1585.8 498.749 1584.83 504.766 1585.7 509.17C1587.99 508.687 1589.26 507.652 1590.67 505.726C1619.38 466.713 1646.33 426.486 1675.88 388.066C1685.39 375.699 1694.44 360.314 1705.51 349.626Z" fill="#FDFDFD"/>
<path d="M101.132 349.379C111.807 349.273 144.463 348.018 153.164 350.749C161.843 357.511 201.098 453.841 208.159 471.332C219.556 499.564 246.707 554.087 253.876 582.532C238.236 582.486 221.902 582.699 206.342 581.779C201.161 570.043 188.906 539.635 182.583 530.761L151.106 530.546C126 530.546 96.9 529.846 72.1086 530.972C67.4541 537.692 52.3008 572.821 48.1682 582.06C34.6664 583.541 13.4253 583.224 0 581.827C18.1889 534.959 39.1362 490.655 58.7754 444.476L81.4394 390.956C87.0935 377.556 93.0858 361.248 101.132 349.379ZM90.3616 489.462C104.253 491.575 118.353 491.145 132.423 491.106C141.043 491.105 155.396 491.514 163.437 490.182L164.196 489.248C162.418 480.469 130.36 402.004 126.522 399.022C119.074 423.738 100.556 461.833 90.3616 489.462Z" fill="#FDFDFD"/>
<path d="M1452.22 349.797C1460.84 349.142 1495.64 348.744 1502.54 350.164L1503.29 351.949C1500.97 361.754 1422.3 442.734 1410.5 457.304L1409.69 458.311C1428.87 477.61 1447.59 507.829 1468.23 526.664C1477.49 538.568 1506.13 572.645 1511.68 582.779C1494.49 582.796 1477.29 582.597 1460.1 582.181C1441.75 563.384 1423.34 540.421 1405.77 520.664C1397.29 511.131 1387.88 498.695 1378.64 490.294C1369.38 489.91 1361.49 489.947 1352.22 490.142C1350.86 500.196 1351.11 519.812 1351.15 530.401C1351.25 547.754 1351.21 565.11 1351.03 582.463C1336.65 583.044 1316.95 583.108 1302.63 582.079C1301.85 572.208 1302.28 555.724 1302.24 545.457L1302.04 476.716L1302.01 397.142C1302.02 388.905 1300.57 354.809 1304.47 349.77C1312.32 349.011 1342.25 348.667 1348.74 350.373C1354.56 356.377 1347.19 433.399 1353.81 448.461L1356.07 449.197C1362.71 446.992 1435.7 363.806 1452.22 349.797Z" fill="#FDFDFD"/>
<path d="M1110.5 510.724C1116.07 538.733 1144.86 548.084 1170.01 546.928C1186.51 546.169 1210.79 548.176 1219.99 530.98C1222.65 526.032 1223.48 517.657 1227.89 514.526C1234.9 513.473 1256.24 513.925 1262.32 516.857C1267.26 529.262 1259.49 552.6 1249.72 562.018C1227.76 583.194 1201.76 584.441 1173.46 584.829C1140.09 585.285 1109.7 582.375 1084.86 557.046C1055.78 527.967 1057.07 494.372 1057.91 456.76C1058.6 425.595 1056.78 395.399 1080.99 371.274C1105.66 346.697 1138.16 346.974 1170.35 347.144C1198.03 347.266 1227.81 345.517 1248.96 367.192C1263.3 381.841 1263.05 394.883 1262.75 413.472C1250.41 413.342 1238.07 413.626 1225.74 414.32C1220.48 402.536 1216.9 390.382 1202.56 387.92C1172.94 382.834 1120.26 378.821 1110.56 415.965C1106.76 427.15 1105.97 500.868 1110.5 510.724Z" fill="#FDFDFD"/>
<path d="M763.752 349.466C772.333 349.342 800.913 348.319 807.489 350.34L808.36 352.505C805.932 362.794 755.406 459.399 747.455 471.453C736.234 491.277 722.537 516.14 712.094 536.34C686.517 585.817 662.191 586.95 611.54 582.429C602.622 581.632 611.851 552.725 614.172 547.858C624.45 546.23 640.826 546.489 651.756 546.245C658.336 542.494 661.527 538.815 665.905 532.765C673.975 521.76 673.894 517.948 666.953 506.591C641.794 465.374 615.868 424.406 593.178 381.755C588.55 373.054 577.073 358.475 577.284 349.424C594.384 349.071 611.493 349.457 628.56 350.58C653.445 389.575 673.34 428.548 696.97 467.704C720.846 433.039 740.555 383.239 763.752 349.466Z" fill="#FDFDFD"/>
<path d="M1841.49 289.838C1850.59 289.162 1857.09 289.395 1866.22 289.72C1869.77 294.746 1872.2 299.261 1877.39 302.606C1885.61 308.002 1895.69 309.766 1905.24 307.482C1916.59 304.875 1921.25 299.44 1927.15 290.288C1936.02 289.99 1949.83 287.372 1954.89 295.551C1955.65 302.091 1952.24 305.99 1948.67 311.383C1918.99 350.492 1833.48 334.977 1841.49 289.838Z" fill="#FDFDFD"/>
<path d="M1110.55 415.965C1111.24 418.059 1110.49 455.24 1110.11 460.01C1109.47 467.877 1111.93 507.16 1110.5 510.724C1105.97 500.868 1106.76 427.15 1110.55 415.965Z" fill="#ACB0B1" fill-opacity="0.0509804"/>
<defs>
<linearGradient id="paint0_linear_36_2362" x1="68.2978" y1="721.357" x2="1175.39" y2="1070.01" gradientUnits="userSpaceOnUse">
<stop stop-color="#5DF5E7"/>
<stop offset="1" stop-color="#8C78F3"/>
</linearGradient>
</defs>
</svg>
